<svg xmlns="http://www.w3.org/2000/svg" xml:space="preserve" stroke-miterlimit="10"
  style="fill-rule:nonzero;clip-rule:evenodd;stroke-linecap:round;stroke-linejoin:round"
  viewBox="0 0 1000 1000">
  <defs>
    <clipPath id="cicada-clip-path"><path d="M0 0h1000v1000H0V0Z"/></clipPath>
  </defs>
  <g fill="#fff" clip-path="url(#cicada-clip-path)"><path d="M653.628 299.716c-15.331-87.282-43.958-138.432-56.849-157.986 3.631-2.129 7.358-4.131 11.299-5.84 10.513-4.558 15.951-1.928 19.521.87 22.606 17.731 27.602 88.554 26.029 162.956m-143.599 78.062c-.013-.94-.029-2.258-.033-3.923.01-1.021.013-2.152.01-3.391.097-12.963.946-38.698 5.284-68.731 21.761 19.64 79.026 91.112 108.075 314.707a4053.277 4053.277 0 0 1-5.174 34.63L510.029 377.778Zm89.07 370.882H400.899l-12.807-59.229 25.102-63.426h173.609l25.102 63.426-12.806 59.229Zm-99.284 114-33.318-5.011c-2.925-7.2-8.949-14.078-17.404-18.961-7.17-4.137-15.11-6.215-22.351-5.9a28.6 28.6 0 0 0-6.93 1.184l-8.069-21.722-6.183-34.261 7.55-9.369h173.777l7.55 9.369-6.183 34.261-8.068 21.721a28.633 28.633 0 0 0-6.928-1.183c-7.296-.317-15.187 1.761-22.351 5.9-8.442 4.874-14.464 11.74-17.394 18.928l-33.698 5.044ZM381.806 651.07a4025.867 4025.867 0 0 1-5.248-35.142c28.795-221.039 86.375-293.829 108.172-314.042 4.318 29.962 5.164 55.627 5.261 68.57-.003 1.244.003 2.381.01 3.409a276.474 276.474 0 0 1-.033 3.912L381.806 651.07Zm-9.405-514.31c2.167-1.7 5.029-3.339 9.301-3.339 2.755 0 6.098.682 10.217 2.469 3.903 1.692 7.596 3.674 11.196 5.779-12.835 19.453-41.38 70.369-56.759 157.269-1.522-74.118 3.518-144.51 26.045-162.178m76.79 52.915c-14.144 24.363-71.327 128.54-92.809 254.867-4.514-170.56 45.875-264.365 63.073-291.191 11.749 10.099 21.567 22.51 29.736 36.324m31.725 89.659c-15.214 10.177-76.055 62.243-112.765 261.064-.674-144.507 67.023-283.118 92.017-329.318 9.725 21.883 16.317 45.64 20.748 68.254m-17.347 219.384 12.643-31.948h47.57l12.644 31.948h-72.857Zm-19.871 50.21 11.972-30.25h88.655l11.973 30.25h-112.6Zm-7.9 19.96h128.399l14.706 37.157h-157.81l14.705-37.157Zm80.084-122.078h-31.77l15.885-40.138 15.885 40.138Zm3.182-167.391c4.422-22.587 11-46.319 20.701-68.188 25.057 46.347 92.608 184.813 91.938 329.165-36.61-198.277-97.218-250.599-112.639-260.977m61.411-126.011c17.259 26.782 67.536 120.132 62.994 291.127-21.449-126.118-78.477-230.154-92.738-254.736 8.169-13.838 17.989-26.271 29.744-36.391m59.443-32.352c-7.761-6.091-20.97-11.64-39.78-3.479C539.787 143.75 512.371 211.359 500 271.452c-12.374-60.093-39.79-127.702-100.141-153.875-18.807-8.158-32.019-2.611-39.777 3.479-33.988 26.657-42.425 128.174-25.792 310.352 12.008 131.528 33.355 257.586 33.569 258.843l.12-.019-.039.453 15.149 70.063 6.504 5.247-2.433 3.02-2.05 8.034 7.147 39.617 12.422 33.764c-1.85 11.221 5.497 24.238 19.103 32.096 6.673 3.853 14.012 5.934 20.838 5.934.506 0 1.013-.012 1.513-.035 8.678-.399 15.793-4.306 19.569-10.711l32.534 4.893 1.67.11 34.328-5.093c3.763 6.461 10.91 10.4 19.63 10.801.503.023 1.007.035 1.514.035 6.825 0 14.167-2.081 20.837-5.934 13.575-7.839 20.926-20.815 19.122-32.018l11.939-32.139 7.611-41.32-2.05-8.034-2.433-3.02 6.504-5.247 15.149-70.063-.039-.453.12.019c.214-1.257 21.565-127.313 33.572-258.842 16.63-182.177 8.193-283.696-25.792-310.353"/><path d="M500 980.04c-264.162 0-479.073-214.911-479.073-479.073S235.838 21.896 500 21.896s479.073 214.909 479.073 479.071c0 264.162-214.911 479.073-479.073 479.073m0-978.104C224.832 1.936.967 225.8.967 500.967.967 776.135 224.832 1000 500 1000s499.033-223.865 499.033-499.033C999.033 225.8 775.168 1.936 500 1.936"/></g>
</svg>