<svg xmlns="http://www.w3.org/2000/svg" fill="none" viewBox="0 0 40 44">
  <defs>
    <clipPath id="delete-icon-clip-path">
      <path fill="currentColor" d="M0 0h40v44H0z"/>
    </clipPath>
  </defs>
  <g clip-path="url(#delete-icon-clip-path)">
    <path stroke="currentColor" stroke-linecap="round" stroke-linejoin="round" stroke-width="4" d="M28 10V8.4c0-2.24 0-3.36-.44-4.22-.38-.76-1-1.36-1.74-1.74C24.96 2 23.84 2 21.6 2h-3.2c-2.24 0-3.36 0-4.22.44-.76.38-1.36 1-1.74 1.74C12 5.04 12 6.16 12 8.4V10m4 11v10m8-10v10M2 10h36m-4 0v22.4c0 3.36 0 5.04-.66 6.32a6.136 6.136 0 0 1-2.62 2.62c-1.28.66-2.96.66-6.32.66h-8.8c-3.36 0-5.04 0-6.32-.66a6.136 6.136 0 0 1-2.62-2.62C6 37.44 6 35.76 6 32.4V10"/>
  </g>
</svg>
