<svg xmlns="http://www.w3.org/2000/svg" fill="none" viewBox="0 0 170 124"><g fill="currentColor" clip-path="url(#a)"><path d="M90.459 0v49.201h10.918V0H90.459ZM106.85 0v49.201h10.918V0H106.85ZM35.841 0v21.86H24.923V0H14.005v49.201h10.918V27.34h10.918v21.861H46.76V0H35.841ZM85.014 38.27h-5.473v5.48h5.473v-5.48Z"/><path d="M79.541 10.93H57.705v5.48h-5.473v27.34h5.473v5.48h21.836v-5.48h-16.39V32.82h21.835V16.41h-5.473v-5.48h.028Zm-5.473 10.93v5.48H63.15V16.41h10.918v5.479-.028ZM150.55 16.41v-5.48h-21.836v5.48h-5.473v27.34h5.473v5.48h21.836v-5.48h5.473V16.41h-5.473Zm-5.473 5.479v21.86h-10.918V16.41h10.918v5.48ZM38.255 113.07h-5.473v5.479h5.473v-5.479Z"/><path d="M54.618 69.32v32.819H43.7V69.32H32.782v32.819h5.445v5.451h16.391v10.959H38.227V124H60.09v-5.451h5.445V69.32H54.618ZM98.318 69.32H71.009v38.27h10.918V74.8h10.918v32.79h10.918V74.8h-5.445v-5.48ZM164.555 74.8v-5.48h-16.391V58.389h-10.918v49.201h10.918V74.8h10.918v32.79H170V74.8h-5.445ZM125.655 63.869v-5.48h-10.918v10.93h-5.473v5.48h5.473v27.34h5.445v5.451h10.946v-5.451h-5.473V74.8h5.473v-5.48h-5.473v-5.451ZM5.473 96.66H0v5.479h5.473v-5.48Z"/><path d="M16.391 58.39H5.473v5.479H0V80.25h5.473v5.48h5.445v5.479h5.473v10.93H5.473v5.451h16.363v-5.451h5.473v-16.41h-5.473V80.25H16.39V74.8h-5.473V63.868h10.918v-5.48H16.39Z"/><path d="M27.309 63.869h-5.473v5.479h5.473v-5.48Z"/></g><defs><clipPath id="a"><path fill="currentColor" d="M0 0h170v124H0z"/></clipPath></defs></svg>