<svg xmlns="http://www.w3.org/2000/svg" viewBox="0 0 1200 1200">
  <path fill="currentColor" d="M916.2 112.56a48.01 48.01 0 0 0-36-16.559H162a48.008 48.008 0 0 0-33.941 14.059A48.012 48.012 0 0 0 114 144.001v912a48.008 48.008 0 0 0 14.059 33.941A48.012 48.012 0 0 0 162 1104.001h876a48.008 48.008 0 0 0 33.941-14.059 48.012 48.012 0 0 0 14.059-33.941v-729.96a47.99 47.99 0 0 0-12-31.438zM402 192.001h372v186H402zm372 816H402v-306h372zm216 0H870v-354a48.008 48.008 0 0 0-14.059-33.941A48.012 48.012 0 0 0 822 606.001H354a48.008 48.008 0 0 0-33.941 14.059A48.012 48.012 0 0 0 306 654.001v354h-96v-816h96v234a48.008 48.008 0 0 0 14.059 33.941A48.012 48.012 0 0 0 354 474.001h468a48.008 48.008 0 0 0 33.941-14.059A48.012 48.012 0 0 0 870 426.001v-220.32l120 138.24z"/>
  <path fill="currentColor" d="M644.4 213h96v147h-96z"/>
</svg>
