<svg xmlns="http://www.w3.org/2000/svg" fill="none" viewBox="0 0 34 34">
  <path stroke="currentColor" stroke-linecap="round" stroke-linejoin="round" stroke-width="3" d="M16.998 22.697a5.7 5.7 0 1 0 0-11.398 5.7 5.7 0 0 0 0 11.398Z"/>
  <path stroke="currentColor" stroke-linecap="round" stroke-linejoin="round" stroke-width="3" d="M24.395 29.313h0s0 0 0 0a1.5 1.5 0 0 0 2.063-.056l2.8-2.8a1.5 1.5 0 0 0 .083-2.03l-1.486-1.752.901-2.176 2.618-.681a1.5 1.5 0 0 0 1.122-1.452v-2.768a1.5 1.5 0 0 0-1.13-1.454l-2.6-.66-.9-2.172 1.476-1.744a1.5 1.5 0 0 0-.085-2.03l-2.8-2.8a1.5 1.5 0 0 0-2.035-.079L22.69 6.14l-2.25-.925-.682-2.595a1.5 1.5 0 0 0-1.45-1.119h-2.736a1.5 1.5 0 0 0-1.451 1.118l-.697 2.648-2.15.906-1.678-1.493a1.5 1.5 0 0 0-2.057.06l-2.8 2.8a1.5 1.5 0 0 0-.104 2.006L6.11 11.36l-.886 2.179-2.565.598A1.5 1.5 0 0 0 1.5 15.598v2.8a1.5 1.5 0 0 0 1.105 1.447l2.657.725.909 2.156L4.68 24.4a1.5 1.5 0 0 0 .059 2.058l2.8 2.8a1.5 1.5 0 0 0 2.008.102l1.815-1.479 2.123.874.659 2.61a1.5 1.5 0 0 0 1.454 1.132h2.8a1.5 1.5 0 0 0 1.454-1.132l.661-2.611 2.197-.91a99.214 99.214 0 0 1 1.609 1.401l.057.052.015.013.003.003.001.001Z"/>
</svg>