<svg xmlns="http://www.w3.org/2000/svg" width="32" height="32" viewBox="0 0 1200 1200"><path fill="currentColor" d="M1070.4 729.6c-54 0-79.199-63.602-103.2-124.8-21.602-54-43.199-109.2-81.602-109.2-38.398 0-60 55.199-81.602 109.2-24 61.199-49.199 124.8-103.2 124.8s-79.199-63.602-103.2-124.8c-21.602-54-43.199-109.2-81.602-109.2-38.398 0-60 55.199-81.602 109.2-24 61.199-49.199 124.8-103.2 124.8s-79.199-63.602-103.2-124.8c-21.602-54-43.199-109.2-81.602-109.2-7.2 0-12-4.8-12-12s4.8-12 12-12c54 0 79.199 63.602 103.2 124.8 21.602 54 43.199 109.2 81.602 109.2 38.398 0 60-55.199 81.602-109.2 24-61.199 49.199-124.8 103.2-124.8s79.199 63.602 103.2 124.8c21.602 54 43.199 109.2 81.602 109.2 38.398 0 60-55.199 81.602-109.2 24-61.199 49.199-124.8 103.2-124.8s79.199 63.602 103.2 124.8c21.602 54 43.199 109.2 81.602 109.2 7.2 0 12 4.8 12 12s-4.797 12-12 12z"/></svg>