<svg xmlns="http://www.w3.org/2000/svg" fill="none" viewBox="0 0 18 23">
  <path stroke="currentColor" stroke-linecap="round" stroke-linejoin="round" stroke-width="2" d="M11 2.048v4.13c0 .56 0 .84.11 1.05.1.19.25.34.44.44.21.11.49.11 1.05.11h4.13m-5.73-6H5.8c-1.68 0-2.52 0-3.16.33-.56.29-1.02.75-1.31 1.31C1 4.058 1 4.898 1 6.578v10.4c0 1.68 0 2.52.33 3.16.29.56.75 1.02 1.31 1.31.64.33 1.48.33 3.16.33h6.4c1.68 0 2.52 0 3.16-.33.56-.29 1.02-.75 1.31-1.31.33-.64.33-1.48.33-3.16v-9.2l-6-6ZM12 14.778l-3-3m0 0-3 3m3-3v6"/>
</svg>
